<?xml version="1.0" encoding="UTF-8" standalone="no"?>
<!-- Created with Inkscape (http://www.inkscape.org/) -->

<svg
   xmlns:dc="http://purl.org/dc/elements/1.1/"
   xmlns:cc="http://creativecommons.org/ns#"
   xmlns:rdf="http://www.w3.org/1999/02/22-rdf-syntax-ns#"
   xmlns:svg="http://www.w3.org/2000/svg"
   xmlns="http://www.w3.org/2000/svg"
   xmlns:sodipodi="http://sodipodi.sourceforge.net/DTD/sodipodi-0.dtd"
   xmlns:inkscape="http://www.inkscape.org/namespaces/inkscape"
   width="422.42856"
   height="479.57144"
   id="svg2"
   version="1.1"
   inkscape:version="0.48.4 r9939"
   sodipodi:docname="Neues Dokument 1">
  <defs
     id="defs4" />
  <sodipodi:namedview
     id="base"
     pagecolor="#ffffff"
     bordercolor="#666666"
     borderopacity="1.0"
     inkscape:pageopacity="0.0"
     inkscape:pageshadow="2"
     inkscape:zoom="0.7"
     inkscape:cx="125.79014"
     inkscape:cy="173.59083"
     inkscape:document-units="px"
     inkscape:current-layer="layer1"
     showgrid="false"
     fit-margin-top="0"
     fit-margin-left="0"
     fit-margin-right="0"
     fit-margin-bottom="0"
     inkscape:window-width="1920"
     inkscape:window-height="1012"
     inkscape:window-x="0"
     inkscape:window-y="0"
     inkscape:window-maximized="1" />
  <metadata
     id="metadata7">
    <rdf:RDF>
      <cc:Work
         rdf:about="">
        <dc:format>image/svg+xml</dc:format>
        <dc:type
           rdf:resource="http://purl.org/dc/dcmitype/StillImage" />
        <dc:title></dc:title>
      </cc:Work>
    </rdf:RDF>
  </metadata>
  <g
     inkscape:label="Ebene 1"
     inkscape:groupmode="layer"
     id="layer1"
     transform="translate(-143.78572,-307.57648)">
    <rect
       style="fill:none;stroke:#000000;stroke-width:1px;stroke-linecap:butt;stroke-linejoin:miter;stroke-opacity:1"
       id="rect3001"
       width="421.42856"
       height="478.57144"
       x="144.28572"
       y="308.07648" />
    <path
       sodipodi:type="arc"
       style="fill:#000000;stroke:none"
       id="FF:FF:FF:UU:UU:UU"
       sodipodi:cx="222.85715"
       sodipodi:cy="686.64789"
       sodipodi:rx="15.714286"
       sodipodi:ry="15.714286"
       d="m 238.57143,686.64789 c 0,8.67876 -7.03552,15.71428 -15.71428,15.71428 -8.67876,0 -15.71429,-7.03552 -15.71429,-15.71428 0,-8.67876 7.03553,-15.71429 15.71429,-15.71429 8.67876,0 15.71428,7.03553 15.71428,15.71429 z"
       inkscape:label="" />
    <path
       transform="translate(37.142853,-274.28571)"
       sodipodi:type="arc"
       style="fill:#000000;stroke:none"
       id="XXXX"
       sodipodi:cx="222.85715"
       sodipodi:cy="686.64789"
       sodipodi:rx="15.714286"
       sodipodi:ry="15.714286"
       d="m 238.57143,686.64789 c 0,8.67876 -7.03552,15.71428 -15.71428,15.71428 -8.67876,0 -15.71429,-7.03552 -15.71429,-15.71428 0,-8.67876 7.03553,-15.71429 15.71429,-15.71429 8.67876,0 15.71428,7.03553 15.71428,15.71429 z"
       inkscape:label="" />
    <path
       transform="translate(234.28571,-98.57142)"
       sodipodi:type="arc"
       style="fill:#000000;stroke:none"
       id="BB:BB:AA:AA:RR:RR"
       sodipodi:cx="222.85715"
       sodipodi:cy="686.64789"
       sodipodi:rx="15.714286"
       sodipodi:ry="15.714286"
       d="m 238.57143,686.64789 c 0,8.67876 -7.03552,15.71428 -15.71428,15.71428 -8.67876,0 -15.71429,-7.03552 -15.71429,-15.71428 0,-8.67876 7.03553,-15.71429 15.71429,-15.71429 8.67876,0 15.71428,7.03553 15.71428,15.71429 z"
       inkscape:label="" />
  </g>
</svg>
